<?xml version="1.0" encoding="utf-8"?>
<!-- Generator: Adobe Illustrator 16.0.0, SVG Export Plug-In . SVG Version: 6.00 Build 0)  -->
<!DOCTYPE svg PUBLIC "-//W3C//DTD SVG 1.1//EN" "http://www.w3.org/Graphics/SVG/1.1/DTD/svg11.dtd">
<svg version="1.1" id="Layer_1" xmlns="http://www.w3.org/2000/svg" xmlns:xlink="http://www.w3.org/1999/xlink" x="0px" y="0px"
	 width="508px" height="115px" viewBox="0 0 508 115" enable-background="new 0 0 508 115" xml:space="preserve">
<g>
	<path fill-rule="evenodd" clip-rule="evenodd" fill="none" d="M332.32,109.6c-40.801,0-81.6,0-122.4,0
		c2.537-0.931,3.24-2.875,3.229-5.405c-0.049-10.953-0.013-21.905-0.026-32.858c-0.001-0.792-0.069-1.601-0.238-2.373
		c-0.42-1.92-1.79-2.813-3.634-2.87c-1.754-0.054-3.132,0.745-3.641,2.519c-0.259,0.899-0.32,1.88-0.328,2.825
		c-0.033,4.194-0.014,8.39-0.014,12.574c-6.862,0-13.386,0-19.978,0c0-3.253,0-6.368,0-9.483c0-1.519,0.079-3.043-0.022-4.556
		c-0.159-2.36-1.61-3.801-3.744-3.884c-2.151-0.084-3.622,1.231-3.983,3.611c-0.095,0.627-0.109,1.271-0.109,1.908
		c-0.006,10.792,0.024,21.585-0.024,32.378c-0.011,2.393,0.527,4.383,2.753,5.614c-8.64,0-17.28,0-25.92,0
		c2.228-1.116,2.919-2.89,2.886-5.38c-0.126-9.506-0.056-19.016-0.049-28.524c0-0.685,0.078-1.368,0.125-2.147
		c3.383,0,6.572,0.03,9.76-0.01c2.365-0.031,3.958-1.488,4.004-3.55c0.045-2.031-1.578-3.573-3.933-3.58
		c-9.189-0.025-18.378-0.07-27.566,0.065c-1.157,0.018-2.689,0.777-3.372,1.696c-1.726,2.321,0.186,5.294,3.338,5.362
		c3.313,0.073,6.628,0.017,9.997,0.017c0,10.426,0.076,20.489-0.056,30.552c-0.031,2.367,0.537,4.159,2.463,5.499
		c-14.72,0-29.44,0-44.16,0c0.001-0.278,0.003-0.558,0.005-0.837c0.586-1.48,1.67-2.958,1.683-4.443
		c0.125-15.348,0.077-30.698,0.078-46.047c0-3.861-1.142-5.578-3.687-5.541c-2.433,0.036-3.48,1.68-3.48,5.485
		c0,13.67,0.002,27.341,0.003,41.011c0,0.854,0,1.706,0,2.603c-30.222,0-60.16,0-90.163,0c0-30.07,0-60.007,0-90.147
		c0.973,0,1.836,0,2.699,0c13.831,0,27.661-0.025,41.491,0.026c2.217,0.008,4.024-0.41,4.597-2.821
		c0.539-2.27-0.882-3.478-2.666-4.408c4.96,0,9.92,0,14.88,0c-0.053,0.122-0.077,0.249-0.072,0.381
		c-2.131,0.732-2.769,2.333-2.286,4.355c0.467,1.955,2.003,2.481,3.859,2.477c8.064-0.021,16.129-0.009,24.193-0.009
		c1.093,0,2.186,0,3.508,0c0,1.12,0,1.979,0,2.84c-0.001,8.224-0.02,16.448,0.005,24.672c0.008,2.764,1.227,4.189,3.463,4.232
		c2.245,0.045,3.585-1.345,3.599-4.112c0.052-10.22,0.034-20.439,0.006-30.66c-0.005-1.8-0.609-3.308-2.604-3.803
		c0-0.129-0.023-0.254-0.071-0.374c16.8,0,33.6,0,50.4,0c-0.325,0.164-0.635,0.422-0.978,0.477
		c-13.333,2.162-21.227,13.272-18.642,26.647c1.583,8.193,6.494,13.896,14.5,16.351c8.1,2.484,15.659,1.062,22.179-4.603
		c1.563-1.357,1.718-3.5,0.564-4.943c-1.268-1.585-3.367-1.821-5.132-0.575c-1.043,0.736-2.019,1.6-3.139,2.188
		c-5.335,2.801-10.606,2.743-15.59-0.801c-4.692-3.337-6.892-10.108-5.41-16.105c1.505-6.093,5.647-10.103,11.233-11.063
		c4.682-0.805,8.595,0.763,12.285,3.47c2.042,1.497,4.225,1.104,5.498-0.693c1.292-1.826,1.041-4.145-1.108-5.401
		c-2.722-1.591-5.692-2.775-8.612-3.999c-1.193-0.5-2.534-0.645-3.808-0.951c13.28,0,26.56,0,39.84,0
		c-0.561,0.193-1.108,0.464-1.686,0.567c-5.729,1.02-10.571,3.608-14.088,8.297c-5.556,7.407-6.066,17.433-1.432,25.261
		c4.467,7.546,13.21,11.452,22.66,10.121c10.89-1.534,18.657-10.284,18.943-21.339c0.283-10.962-6.893-19.926-17.696-22.129
		c-0.967-0.197-1.909-0.516-2.861-0.778c99.52,0,199.04,0,298.56,0c0,21.308,0,42.574,0,63.84c-0.783-0.637-1.479-1.465-2.367-1.87
		c-2.206-1.007-4.484-0.19-5.937,2.056c-4.19,6.481-8.338,12.99-12.602,19.644c-0.602-0.88-1.11-1.584-1.578-2.315
		c-3.693-5.777-7.397-11.547-11.055-17.347c-1.336-2.118-3.169-2.785-5.526-2.189c-2.432,0.613-2.835,2.422-2.827,4.606
		c0.036,11.26,0.068,22.521-0.03,33.78c-0.02,2.239,0.656,3.823,2.562,4.915c-4.16,0-8.319,0-12.479,0
		c3.002-1.487,3.631-3.043,2.278-6.074c-5.088-11.408-10.201-22.805-15.333-34.193c-1.321-2.931-2.854-3.763-5.809-3.479
		c-2.333,0.225-3.378,1.792-4.231,3.706c-4.96,11.121-9.947,22.229-14.93,33.34c-1.562,3.48-1.463,4.155,1.064,6.7
		c-17.44,0-34.881,0-52.32,0c3.344-1.951,3.692-3.987,1.229-7.073c-2.518-3.156-5.021-6.323-7.56-9.522
		c0.41-0.263,0.598-0.42,0.812-0.515c6.727-2.964,9.249-7.431,8.41-14.907c-0.624-5.565-4.686-9.884-11.249-10.644
		c-5.925-0.687-11.961-0.442-17.949-0.53c-4.654-0.067-5.703,1.053-5.703,5.808c-0.002,10.24,0.056,20.48-0.041,30.719
		C330.006,105.51,330.256,107.822,332.32,109.6z M282.921,87.625c0,5.751-0.023,11.503,0.01,17.254
		c0.015,2.546,1.183,4.196,3.313,4.188c5.979-0.022,12.042,0.331,17.916-0.528c10.684-1.564,17.712-10.495,17.56-21.214
		c-0.151-10.508-7.496-19.06-18.179-20.431c-5.271-0.677-10.67-0.403-16.012-0.482c-3.253-0.048-4.592,1.369-4.599,4.678
		C282.919,76.602,282.928,82.113,282.921,87.625z M233.835,26.896c0,5.678-0.002,11.356,0.001,17.035
		c0.001,2.134,0.762,4.155,3.04,4.168c6.378,0.038,12.89,0.439,19.107-0.667c10.13-1.804,16.416-10.251,16.423-20.402
		c0.007-10.512-6.044-18.584-16.41-20.602c-5.341-1.039-10.958-0.735-16.454-0.884c-4.663-0.126-5.688,0.957-5.697,5.517
		C233.833,16.339,233.842,21.618,233.835,26.896z M288.744,12.436c6.963,0,13.673,0.04,20.383-0.021
		c2.498-0.022,4.006-1.467,3.979-3.509c-0.027-2.038-1.59-3.396-4.102-3.403c-7.912-0.021-15.825-0.023-23.737,0.027
		c-2.802,0.019-4.225,1.521-4.23,4.368c-0.021,11.269-0.021,22.538-0.001,33.807c0.007,3.24,1.287,4.518,4.492,4.526
		c7.912,0.02,15.824,0.019,23.736,0.004c2.599-0.004,4.045-1.189,4.118-3.278c0.075-2.172-1.472-3.513-4.17-3.522
		c-6.074-0.021-12.148-0.006-18.222-0.007c-0.759,0-1.517,0-2.2,0c0-3.931,0-7.5,0-11.22c1.096,0,2.046,0.001,2.996,0
		c4.955-0.013,9.911,0.023,14.864-0.061c2.395-0.041,3.719-1.429,3.655-3.525c-0.058-1.899-1.468-3.275-3.641-3.328
		c-3.115-0.076-6.233-0.025-9.351-0.027c-2.842-0.001-5.683,0-8.57,0C288.744,19.541,288.744,16.132,288.744,12.436z M381.96,73.23
		c6.886,0,13.511,0.016,20.135-0.008c2.797-0.009,4.213-1.232,4.152-3.474c-0.056-2.096-1.536-3.34-4.083-3.345
		c-7.837-0.015-15.674-0.017-23.51,0c-3.034,0.007-4.497,1.348-4.508,4.321c-0.042,11.354-0.042,22.71-0.01,34.065
		c0.009,2.979,1.463,4.325,4.474,4.33c7.917,0.012,15.834,0.008,23.75,0.002c2.719-0.002,4.296-1.27,4.279-3.404
		c-0.016-2.062-1.654-3.407-4.333-3.422c-6.157-0.031-12.314-0.007-18.472-0.021c-0.607-0.002-1.215-0.111-1.826-0.172
		c0-3.741,0-7.302,0-11.002c0.823-0.037,1.522-0.094,2.222-0.096c4.798-0.011,9.596-0.008,14.394-0.016
		c3.508-0.006,4.913-1.019,4.843-3.471c-0.068-2.393-1.438-3.361-4.763-3.364c-3.358-0.002-6.718,0-10.076,0
		c-2.204,0-4.408,0-6.668,0C381.96,80.404,381.96,76.992,381.96,73.23z M231.526,73.231c6.99,0,13.69,0.016,20.391-0.008
		c2.634-0.01,4.042-1.198,4.084-3.322c0.043-2.172-1.517-3.498-4.202-3.502c-7.838-0.012-15.675-0.016-23.513,0.007
		c-2.992,0.009-4.385,1.398-4.39,4.401c-0.017,11.276-0.013,22.553,0.005,33.829c0.005,3.224,1.284,4.479,4.512,4.484
		c7.917,0.014,15.835,0.011,23.753,0.002c2.591-0.003,4.104-1.206,4.166-3.26c0.064-2.136-1.481-3.52-4.157-3.559
		c-3.678-0.055-7.357-0.017-11.036-0.017c-3.169-0.001-6.338,0-9.427,0c0-3.948,0-7.577,0-11.296c6.021,0,11.853,0.02,17.684-0.01
		c2.474-0.012,3.824-1.218,3.839-3.291c0.016-2.163-1.429-3.477-3.922-3.53c-1.199-0.026-2.399-0.005-3.598-0.005
		c-4.686,0-9.372,0-14.19,0c0-0.932,0-1.561,0-2.188C231.526,79.172,231.526,76.377,231.526,73.231z M21.236,78.25
		c0.018,5.801,3.409,10.952,8.702,13.217c5.423,2.319,11.552,1.232,15.777-2.87c3.441-3.342,6.83-6.737,10.235-10.116
		c2.097-2.081,2.36-4.041,0.774-5.615c-1.572-1.561-3.472-1.297-5.627,0.825c-3.245,3.194-6.448,6.433-9.714,9.606
		c-3.412,3.316-8.028,3.398-11.092,0.263c-3.187-3.261-3.113-7.653,0.252-11.083c3.192-3.253,6.441-6.449,9.661-9.676
		c2.052-2.057,2.389-4.121,0.932-5.631c-1.517-1.57-3.75-1.244-5.856,0.869c-3.274,3.285-6.538,6.579-9.812,9.864
		C22.618,70.766,21.205,74.211,21.236,78.25z M78.548,21.201c-3.668-0.193-7.043,1.099-9.826,3.733
		c-3.653,3.457-7.198,7.029-10.756,10.584c-1.835,1.835-1.994,3.753-0.542,5.269c1.531,1.598,3.502,1.467,5.439-0.441
		c3.355-3.306,6.651-6.672,10.02-9.965c3.362-3.286,7.994-3.322,11.108-0.157c3.066,3.116,2.913,7.787-0.387,11.099
		c-3.269,3.281-6.567,6.534-9.834,9.816c-1.929,1.939-2.157,3.905-0.684,5.444c1.532,1.601,3.407,1.425,5.419-0.545
		c3.251-3.184,6.496-6.375,9.727-9.578c4.557-4.519,5.973-10.73,3.728-16.255C89.706,24.655,84.71,21.249,78.548,21.201z
		 M52.778,56.572c-4.287,4.189-7.962,7.731-11.576,11.334c-1.496,1.491-1.525,3.614-0.224,4.921c1.307,1.312,3.44,1.301,4.957-0.047
		c0.417-0.371,0.777-0.804,1.175-1.196c3.276-3.235,6.556-6.468,10.223-10.085c1.587,1.751,2.944,3.308,4.367,4.801
		c1.985,2.083,4.049,2.341,5.592,0.771c1.548-1.577,1.302-3.59-0.835-5.613c-1.54-1.458-3.209-2.78-4.771-4.121
		c3.921-3.984,7.254-7.417,10.642-10.795c2.034-2.028,2.4-4.095,0.861-5.609c-1.587-1.561-3.564-1.369-5.624,0.732
		c-3.399,3.468-6.719,7.013-10.261,10.724c-1.932-2.008-3.446-3.635-5.019-5.202c-1.785-1.778-3.833-1.985-5.283-0.609
		c-1.45,1.375-1.384,3.541,0.381,5.29C48.96,53.43,50.729,54.801,52.778,56.572z"/>
	<path fill-rule="evenodd" clip-rule="evenodd" fill="#1A2C4E" d="M58.24,4.48c1.784,0.93,3.205,2.139,2.666,4.408
		c-0.572,2.411-2.38,2.829-4.597,2.821c-13.83-0.051-27.661-0.026-41.491-0.026c-0.863,0-1.727,0-2.699,0c0,30.14,0,60.077,0,90.147
		c30.003,0,59.941,0,90.163,0c0-0.896,0-1.749,0-2.603c-0.001-13.67-0.004-27.341-0.003-41.011c0-3.805,1.047-5.449,3.48-5.485
		c2.545-0.038,3.687,1.679,3.687,5.541c-0.001,15.349,0.047,30.699-0.078,46.047c-0.012,1.485-1.096,2.963-1.683,4.443
		c-0.862,0.12-1.723,0.347-2.584,0.347c-32.03,0.018-64.06,0.007-96.09,0.028c-2.36,0.001-3.802-0.934-4.14-3.339
		c0.026-0.317,0.075-0.635,0.075-0.953C4.951,72.91,4.955,40.975,4.934,9.039c0-0.56-0.296-1.119-0.454-1.679c0-0.8,0-1.6,0-2.4
		c2.064-0.003,4.128-0.007,6.191-0.007C25.462,4.952,40.252,4.96,55.042,4.932c0.906-0.001,1.812-0.294,2.718-0.452
		C57.92,4.48,58.08,4.48,58.24,4.48z"/>
	<path fill-rule="evenodd" clip-rule="evenodd" fill="#172B4D" d="M463.84,109.6c-1.905-1.092-2.581-2.676-2.562-4.915
		c0.099-11.26,0.066-22.521,0.03-33.78c-0.008-2.185,0.396-3.993,2.827-4.606c2.357-0.596,4.19,0.071,5.526,2.189
		c3.657,5.8,7.361,11.569,11.055,17.347c0.468,0.731,0.977,1.436,1.578,2.315c4.264-6.653,8.411-13.162,12.602-19.644
		c1.452-2.246,3.73-3.063,5.937-2.056c0.888,0.405,1.584,1.233,2.367,1.87c0,13.76,0,27.52,0,41.279c-1.6,0-3.2,0-4.8,0
		c-2.215-1.18-2.947-3.003-2.874-5.504c0.151-5.19,0.045-10.388,0.045-15.582c0-2.417,0-4.834,0-7.952
		c-3.609,5.402-6.771,10.173-9.975,14.915c-2.099,3.108-4.748,3.133-6.825,0.067c-2.775-4.095-5.504-8.219-8.255-12.329
		c-0.454-0.678-0.92-1.348-1.764-2.583c0,8.434-0.065,16.087,0.037,23.738c0.033,2.472-0.579,4.318-3.03,5.229
		C465.12,109.6,464.479,109.6,463.84,109.6z"/>
	<path fill-rule="evenodd" clip-rule="evenodd" fill="#1C2D4F" d="M332.32,109.6c-2.064-1.777-2.314-4.09-2.291-6.665
		c0.097-10.238,0.039-20.479,0.041-30.719c0-4.755,1.049-5.875,5.703-5.808c5.988,0.088,12.024-0.156,17.949,0.53
		c6.563,0.76,10.625,5.078,11.249,10.644c0.839,7.477-1.684,11.943-8.41,14.907c-0.214,0.095-0.401,0.252-0.812,0.515
		c2.539,3.199,5.042,6.366,7.56,9.522c2.463,3.086,2.114,5.122-1.229,7.073c-0.8,0-1.6,0-2.4,0
		c-1.239-1.317-2.566-2.564-3.701-3.966c-2.71-3.349-5.305-6.789-8.01-10.14c-0.444-0.55-1.201-1.154-1.84-1.186
		c-2.687-0.132-5.383-0.056-8.208-0.056c0,3.438-0.077,6.621,0.025,9.8c0.078,2.399-0.571,4.321-2.746,5.547
		C334.24,109.6,333.28,109.6,332.32,109.6z M338.075,73.628c0,4.621,0,9.18,0,14.098c4.754-0.229,9.385-0.146,13.92-0.764
		c3.619-0.494,5.474-3.458,5.318-7.097c-0.134-3.174-2.389-5.904-5.872-6.159C347.031,73.384,342.578,73.628,338.075,73.628z"/>
	<path fill-rule="evenodd" clip-rule="evenodd" fill="#EF6142" d="M204.64,4.48c0.953,0.262,1.895,0.581,2.861,0.778
		c10.803,2.203,17.979,11.167,17.696,22.129c-0.286,11.055-8.053,19.805-18.943,21.339c-9.449,1.332-18.193-2.574-22.66-10.121
		c-4.634-7.828-4.125-17.854,1.432-25.261c3.517-4.688,8.359-7.277,14.088-8.297c0.577-0.104,1.125-0.374,1.686-0.567
		C202.08,4.48,203.36,4.48,204.64,4.48z M217.129,27.04c-0.006-8.633-6.318-15.309-14.448-15.281
		c-7.905,0.027-14.201,6.634-14.283,14.986c-0.083,8.511,6.329,15.2,14.542,15.171C211.063,41.887,217.136,35.519,217.129,27.04z"/>
	<path fill-rule="evenodd" clip-rule="evenodd" fill="#1F3051" d="M180.16,109.6c-2.226-1.231-2.764-3.222-2.753-5.614
		c0.049-10.793,0.019-21.586,0.024-32.378c0-0.637,0.014-1.281,0.109-1.908c0.361-2.38,1.832-3.695,3.983-3.611
		c2.134,0.083,3.585,1.523,3.744,3.884c0.101,1.513,0.022,3.037,0.022,4.556c0,3.115,0,6.23,0,9.483c6.592,0,13.116,0,19.978,0
		c0-4.185-0.019-8.38,0.014-12.574c0.007-0.945,0.069-1.926,0.328-2.825c0.509-1.773,1.887-2.572,3.641-2.519
		c1.844,0.057,3.213,0.95,3.634,2.87c0.169,0.772,0.237,1.581,0.238,2.373c0.013,10.953-0.023,21.905,0.026,32.858
		c0.011,2.53-0.691,4.475-3.229,5.405c-0.64,0-1.28,0-1.92,0c-2.191-1.231-2.849-3.13-2.771-5.578
		c0.132-4.187,0.037-8.381,0.037-12.556c-6.854,0-13.365,0-19.975,0c0,3.974-0.107,7.803,0.038,11.623
		c0.096,2.538-0.257,4.784-2.288,6.511C182.08,109.6,181.12,109.6,180.16,109.6z"/>
	<path fill-rule="evenodd" clip-rule="evenodd" fill="#1B2D4F" d="M414.4,109.6c-2.527-2.545-2.626-3.22-1.064-6.7
		c4.982-11.11,9.97-22.219,14.93-33.34c0.854-1.914,1.898-3.481,4.231-3.706c2.954-0.284,4.487,0.548,5.809,3.479
		c5.132,11.389,10.245,22.785,15.333,34.193c1.353,3.031,0.724,4.587-2.278,6.074c-0.641,0-1.28,0-1.92,0
		c-1.01-1.358-2.148-2.641-2.992-4.095c-0.869-1.5-1.571-3.126-2.124-4.771c-0.484-1.441-1.257-1.905-2.768-1.88
		c-5.415,0.091-10.834,0.119-16.248-0.013c-1.811-0.044-2.579,0.601-3.323,2.202c-1.369,2.945-3.116,5.715-4.705,8.557
		C416.32,109.6,415.36,109.6,414.4,109.6z M426.016,91.877c5.005,0,9.594,0,14.456,0c-2.413-5.55-4.73-10.881-7.23-16.63
		C430.763,80.95,428.461,86.249,426.016,91.877z"/>
	<path fill-rule="evenodd" clip-rule="evenodd" fill="#EF6243" d="M160.96,4.48c1.274,0.306,2.615,0.451,3.808,0.951
		c2.92,1.224,5.891,2.407,8.612,3.999c2.149,1.256,2.401,3.575,1.108,5.401c-1.273,1.797-3.457,2.19-5.498,0.693
		c-3.69-2.707-7.604-4.275-12.285-3.47c-5.586,0.96-9.729,4.97-11.233,11.063c-1.481,5.997,0.718,12.768,5.41,16.105
		c4.984,3.544,10.255,3.603,15.59,0.801c1.12-0.588,2.096-1.453,3.139-2.188c1.765-1.246,3.864-1.01,5.132,0.575
		c1.154,1.443,0.999,3.585-0.564,4.943c-6.52,5.664-14.08,7.087-22.179,4.603c-8.006-2.456-12.917-8.158-14.5-16.351
		c-2.585-13.375,5.309-24.485,18.642-26.647c0.343-0.055,0.653-0.313,0.978-0.477C158.4,4.48,159.68,4.48,160.96,4.48z"/>
	<path fill-rule="evenodd" clip-rule="evenodd" fill="none" d="M465.76,109.6c2.451-0.911,3.063-2.758,3.03-5.229
		c-0.103-7.651-0.037-15.305-0.037-23.738c0.844,1.235,1.31,1.905,1.764,2.583c2.751,4.11,5.479,8.234,8.255,12.329
		c2.077,3.065,4.727,3.041,6.825-0.067c3.203-4.742,6.365-9.513,9.975-14.915c0,3.118,0,5.535,0,7.952
		c0,5.194,0.106,10.392-0.045,15.582c-0.073,2.501,0.659,4.324,2.874,5.504C487.52,109.6,476.641,109.6,465.76,109.6z"/>
	<path fill-rule="evenodd" clip-rule="evenodd" fill="#182B4D" d="M151.84,109.6c-1.927-1.34-2.494-3.132-2.463-5.499
		c0.131-10.063,0.056-20.126,0.056-30.552c-3.369,0-6.684,0.057-9.997-0.017c-3.152-0.068-5.063-3.041-3.338-5.362
		c0.683-0.919,2.215-1.679,3.372-1.696c9.188-0.136,18.377-0.091,27.566-0.065c2.354,0.007,3.978,1.549,3.933,3.58
		c-0.046,2.062-1.639,3.519-4.004,3.55c-3.188,0.04-6.377,0.01-9.76,0.01c-0.047,0.779-0.125,1.463-0.125,2.147
		c-0.007,9.509-0.078,19.019,0.049,28.524c0.033,2.49-0.658,4.264-2.886,5.38C153.44,109.6,152.64,109.6,151.84,109.6z"/>
	<path fill-rule="evenodd" clip-rule="evenodd" fill="none" d="M183.04,109.6c2.031-1.727,2.383-3.973,2.288-6.511
		c-0.145-3.82-0.038-7.649-0.038-11.623c6.61,0,13.121,0,19.975,0c0,4.175,0.096,8.369-0.037,12.556
		c-0.077,2.448,0.581,4.347,2.771,5.578C199.68,109.6,191.36,109.6,183.04,109.6z"/>
	<path fill-rule="evenodd" clip-rule="evenodd" fill="none" d="M417.28,109.6c1.589-2.842,3.336-5.611,4.705-8.557
		c0.744-1.602,1.513-2.246,3.323-2.202c5.414,0.132,10.833,0.104,16.248,0.013c1.511-0.025,2.283,0.438,2.768,1.88
		c0.553,1.646,1.255,3.271,2.124,4.771c0.844,1.454,1.982,2.736,2.992,4.095C438.72,109.6,428,109.6,417.28,109.6z"/>
	<path fill-rule="evenodd" clip-rule="evenodd" fill="none" d="M335.2,109.6c2.175-1.226,2.824-3.147,2.746-5.547
		c-0.103-3.179-0.025-6.362-0.025-9.8c2.825,0,5.521-0.076,8.208,0.056c0.639,0.031,1.396,0.636,1.84,1.186
		c2.705,3.351,5.3,6.791,8.01,10.14c1.135,1.401,2.462,2.648,3.701,3.966C351.52,109.6,343.36,109.6,335.2,109.6z"/>
	<path fill-rule="evenodd" clip-rule="evenodd" fill="none" d="M4.871,105.799c0.338,2.405,1.78,3.34,4.14,3.339
		c32.03-0.021,64.06-0.011,96.09-0.028c0.861,0,1.723-0.227,2.584-0.347c-0.002,0.279-0.003,0.559-0.005,0.837
		c-34.4,0-68.8,0-103.2,0c0-1.285,0-2.563,0-3.84l0.19,0.072L4.871,105.799z"/>
	<path fill-rule="evenodd" clip-rule="evenodd" fill="#AAACBC" d="M4.871,105.799l-0.201,0.033l-0.19-0.072c0-32.8,0-65.6,0-98.4
		c0.158,0.56,0.454,1.119,0.454,1.679c0.021,31.936,0.017,63.871,0.012,95.807C4.946,105.164,4.896,105.481,4.871,105.799z"/>
	<path fill-rule="evenodd" clip-rule="evenodd" fill="#414C6B" d="M57.76,4.48c-0.906,0.158-1.812,0.45-2.718,0.452
		c-14.79,0.028-29.58,0.02-44.371,0.021c-2.063,0-4.127,0.004-6.191,0.007C5.12,4.8,5.76,4.501,6.4,4.5
		C23.52,4.475,40.64,4.48,57.76,4.48z"/>
	<path fill-rule="evenodd" clip-rule="evenodd" fill="#F9AB8A" d="M106.72,4.48c0.048,0.12,0.072,0.245,0.071,0.374
		C95.544,4.856,84.296,4.859,73.048,4.861c-0.005-0.132,0.019-0.259,0.072-0.381C84.32,4.48,95.52,4.48,106.72,4.48z"/>
	<path fill-rule="evenodd" clip-rule="evenodd" fill="#192C4E" d="M282.924,87.625c0.004-5.512-0.005-11.023,0.006-16.535
		c0.007-3.309,1.346-4.726,4.599-4.678c5.342,0.079,10.74-0.194,16.012,0.482c10.683,1.371,18.027,9.923,18.179,20.431
		c0.152,10.719-6.876,19.649-17.56,21.214c-5.874,0.859-11.938,0.506-17.916,0.528c-2.13,0.008-3.298-1.643-3.313-4.188
		C282.897,99.128,282.921,93.376,282.924,87.625z M290.68,101.996c3.524,0,6.948,0.184,10.347-0.039
		c6.733-0.44,11.895-5.622,12.533-12.3c0.725-7.598-3.188-14.051-10.096-15.514c-4.119-0.873-8.466-0.668-12.784-0.953
		C290.68,83.109,290.68,92.496,290.68,101.996z"/>
	<path fill-rule="evenodd" clip-rule="evenodd" fill="#F06142" d="M233.838,26.896c0.003-5.278-0.005-10.557,0.006-15.835
		c0.01-4.56,1.034-5.643,5.697-5.517c5.496,0.148,11.112-0.155,16.454,0.884c10.366,2.018,16.417,10.09,16.41,20.602
		c-0.007,10.151-6.293,18.598-16.423,20.402c-6.217,1.106-12.729,0.705-19.107,0.667c-2.278-0.013-3.038-2.034-3.04-4.168
		C233.833,38.252,233.835,32.574,233.838,26.896z M241.6,41.077c3.827,0,7.439,0.345,10.96-0.073
		c6.922-0.821,11.237-5.688,11.979-12.88c0.668-6.473-2.974-12.873-9.256-14.543c-4.341-1.155-9.044-0.953-13.683-1.366
		C241.6,22.281,241.6,31.624,241.6,41.077z"/>
	<path fill-rule="evenodd" clip-rule="evenodd" fill="#F06243" d="M288.744,12.436c0,3.696,0,7.104,0,10.832
		c2.888,0,5.729-0.001,8.57,0c3.117,0.002,6.235-0.049,9.351,0.027c2.173,0.052,3.583,1.428,3.641,3.328
		c0.063,2.096-1.261,3.485-3.655,3.525c-4.953,0.083-9.909,0.048-14.864,0.061c-0.95,0.002-1.9,0-2.996,0c0,3.72,0,7.29,0,11.22
		c0.684,0,1.441,0,2.2,0c6.073,0,12.147-0.014,18.222,0.007c2.698,0.01,4.245,1.351,4.17,3.522c-0.073,2.088-1.52,3.273-4.118,3.278
		c-7.912,0.015-15.824,0.016-23.736-0.004c-3.205-0.009-4.485-1.286-4.492-4.526c-0.02-11.269-0.02-22.538,0.001-33.807
		c0.006-2.847,1.429-4.349,4.23-4.368c7.912-0.051,15.825-0.048,23.737-0.027c2.512,0.006,4.074,1.365,4.102,3.403
		c0.027,2.042-1.48,3.487-3.979,3.509C302.417,12.476,295.707,12.436,288.744,12.436z"/>
	<path fill-rule="evenodd" clip-rule="evenodd" fill="#162A4C" d="M381.96,73.23c0,3.762,0,7.174,0,10.926c2.26,0,4.464,0,6.668,0
		c3.358,0,6.718-0.002,10.076,0c3.324,0.003,4.694,0.972,4.763,3.364c0.07,2.452-1.335,3.465-4.843,3.471
		c-4.798,0.008-9.596,0.005-14.394,0.016c-0.699,0.002-1.398,0.059-2.222,0.096c0,3.7,0,7.261,0,11.002
		c0.611,0.061,1.219,0.17,1.826,0.172c6.157,0.014,12.314-0.011,18.472,0.021c2.679,0.015,4.317,1.36,4.333,3.422
		c0.017,2.135-1.561,3.402-4.279,3.404c-7.916,0.006-15.833,0.01-23.75-0.002c-3.011-0.005-4.465-1.352-4.474-4.33
		c-0.032-11.355-0.032-22.711,0.01-34.065c0.011-2.974,1.474-4.314,4.508-4.321c7.836-0.017,15.673-0.015,23.51,0
		c2.547,0.005,4.027,1.249,4.083,3.345c0.061,2.241-1.355,3.465-4.152,3.474C395.471,73.246,388.846,73.23,381.96,73.23z"/>
	<path fill-rule="evenodd" clip-rule="evenodd" fill="#162A4C" d="M231.526,73.231c0,3.146,0,5.94,0,8.736c0,0.628,0,1.257,0,2.188
		c4.818,0,9.504,0,14.19,0c1.199,0,2.399-0.021,3.598,0.005c2.493,0.054,3.938,1.367,3.922,3.53
		c-0.016,2.073-1.365,3.279-3.839,3.291c-5.832,0.029-11.664,0.01-17.684,0.01c0,3.719,0,7.348,0,11.296
		c3.089,0,6.258-0.001,9.427,0c3.679,0,7.358-0.038,11.036,0.017c2.676,0.039,4.222,1.423,4.157,3.559
		c-0.063,2.054-1.575,3.257-4.166,3.26c-7.917,0.009-15.835,0.012-23.753-0.002c-3.228-0.005-4.507-1.261-4.512-4.484
		c-0.019-11.276-0.022-22.553-0.005-33.829c0.004-3.003,1.397-4.393,4.39-4.401c7.837-0.022,15.675-0.019,23.513-0.007
		c2.686,0.004,4.245,1.33,4.202,3.502c-0.042,2.124-1.45,3.313-4.084,3.322C245.217,73.247,238.516,73.231,231.526,73.231z"/>
	<path fill-rule="evenodd" clip-rule="evenodd" fill="#EE6243" d="M21.233,78.249c-0.028-4.038,1.384-7.483,4.235-10.346
		c3.273-3.285,6.538-6.579,9.812-9.864c2.106-2.113,4.34-2.439,5.856-0.869c1.457,1.51,1.121,3.574-0.932,5.631
		c-3.219,3.227-6.469,6.423-9.661,9.676c-3.365,3.43-3.439,7.822-0.252,11.083c3.064,3.136,7.681,3.054,11.092-0.263
		c3.266-3.174,6.469-6.412,9.714-9.606c2.155-2.122,4.055-2.386,5.627-0.825c1.585,1.574,1.322,3.534-0.774,5.615
		c-3.405,3.379-6.794,6.774-10.235,10.116c-4.225,4.103-10.354,5.189-15.777,2.87C24.646,89.202,21.254,84.051,21.233,78.249z"/>
	<path fill-rule="evenodd" clip-rule="evenodd" fill="#EE6243" d="M78.548,21.201c6.162,0.048,11.158,3.454,13.412,9.003
		c2.245,5.525,0.83,11.737-3.728,16.255c-3.231,3.204-6.476,6.395-9.727,9.578c-2.013,1.971-3.888,2.146-5.419,0.545
		c-1.473-1.539-1.245-3.505,0.684-5.444c3.267-3.282,6.565-6.535,9.834-9.816c3.3-3.312,3.453-7.982,0.387-11.099
		c-3.115-3.165-7.747-3.129-11.108,0.157c-3.369,3.292-6.665,6.659-10.02,9.965c-1.938,1.909-3.908,2.04-5.439,0.441
		c-1.452-1.516-1.293-3.434,0.542-5.269c3.558-3.556,7.103-7.128,10.756-10.584C71.505,22.3,74.88,21.008,78.548,21.201z"/>
	<path fill-rule="evenodd" clip-rule="evenodd" fill="#EF6143" d="M73.048,4.861c11.248-0.002,22.496-0.005,33.743-0.007
		c1.995,0.495,2.599,2.003,2.604,3.803c0.028,10.22,0.046,20.44-0.006,30.66c-0.014,2.767-1.354,4.157-3.599,4.112
		c-2.236-0.043-3.455-1.469-3.463-4.232c-0.024-8.225-0.006-16.448-0.005-24.672c0-0.86,0-1.72,0-2.84c-1.322,0-2.416,0-3.508,0
		c-8.064,0-16.128-0.012-24.193,0.009c-1.856,0.004-3.392-0.522-3.859-2.477C70.28,7.194,70.917,5.594,73.048,4.861z"/>
	<path fill-rule="evenodd" clip-rule="evenodd" fill="#F0C424" d="M52.778,56.572c-2.049-1.771-3.817-3.142-5.396-4.706
		c-1.766-1.749-1.832-3.915-0.381-5.29c1.45-1.376,3.498-1.168,5.283,0.609c1.573,1.567,3.087,3.194,5.019,5.202
		c3.542-3.71,6.862-7.255,10.261-10.724c2.059-2.101,4.037-2.293,5.624-0.732c1.539,1.514,1.173,3.581-0.861,5.609
		c-3.388,3.378-6.721,6.812-10.642,10.795c1.562,1.341,3.231,2.663,4.771,4.121c2.137,2.023,2.383,4.036,0.835,5.613
		c-1.542,1.57-3.607,1.313-5.592-0.771c-1.423-1.493-2.779-3.05-4.367-4.801c-3.667,3.617-6.947,6.85-10.223,10.085
		c-0.397,0.393-0.758,0.825-1.175,1.196c-1.516,1.348-3.649,1.358-4.957,0.047c-1.301-1.307-1.272-3.43,0.224-4.921
		C44.816,64.303,48.491,60.761,52.778,56.572z"/>
	<path fill-rule="evenodd" clip-rule="evenodd" fill="none" d="M338.075,73.628c4.503,0,8.956-0.244,13.366,0.078
		c3.483,0.255,5.738,2.985,5.872,6.159c0.155,3.639-1.699,6.603-5.318,7.097c-4.535,0.618-9.166,0.535-13.92,0.764
		C338.075,82.808,338.075,78.249,338.075,73.628z"/>
	<path fill-rule="evenodd" clip-rule="evenodd" fill="none" d="M217.129,27.04c0.006,8.479-6.067,14.847-14.189,14.876
		c-8.213,0.029-14.625-6.66-14.542-15.171c0.082-8.352,6.378-14.959,14.283-14.986C210.811,11.731,217.123,18.407,217.129,27.04z"/>
	<path fill-rule="evenodd" clip-rule="evenodd" fill="none" d="M426.016,91.877c2.445-5.628,4.747-10.927,7.226-16.63
		c2.5,5.749,4.817,11.08,7.23,16.63C435.609,91.877,431.021,91.877,426.016,91.877z"/>
	<path fill-rule="evenodd" clip-rule="evenodd" fill="none" d="M290.68,101.996c0-9.5,0-18.887,0-28.806
		c4.318,0.285,8.665,0.08,12.784,0.953c6.907,1.463,10.82,7.916,10.096,15.514c-0.639,6.678-5.8,11.859-12.533,12.3
		C297.628,102.18,294.204,101.996,290.68,101.996z"/>
	<path fill-rule="evenodd" clip-rule="evenodd" fill="none" d="M241.6,41.077c0-9.453,0-18.795,0-28.863
		c4.639,0.413,9.342,0.211,13.683,1.366c6.282,1.67,9.924,8.07,9.256,14.543c-0.741,7.191-5.057,12.059-11.979,12.88
		C249.039,41.421,245.427,41.077,241.6,41.077z"/>
</g>
</svg>
